<?xml version="1.0" encoding="UTF-8" standalone="no"?>
<!-- Generator: Adobe Illustrator 16.0.2, SVG Export Plug-In . SVG Version: 6.00 Build 0)  -->

<svg
   version="1.1"
   id="Layer_1"
   x="0px"
   y="0px"
   width="832.67798"
   height="560.28406"
   viewBox="0 0 832.67798 560.28406"
   enable-background="new 0 0 1280 800"
   xml:space="preserve"
   sodipodi:docname="new_spartak_logo_Abali.ru.svg"
   inkscape:version="1.1 (c68e22c387, 2021-05-23)"
   xmlns:inkscape="http://www.inkscape.org/namespaces/inkscape"
   xmlns:sodipodi="http://sodipodi.sourceforge.net/DTD/sodipodi-0.dtd"
   xmlns="http://www.w3.org/2000/svg"
   xmlns:svg="http://www.w3.org/2000/svg"><defs
   id="defs53" /><sodipodi:namedview
   id="namedview51"
   pagecolor="#ffffff"
   bordercolor="#666666"
   borderopacity="1.0"
   inkscape:pageshadow="2"
   inkscape:pageopacity="0.0"
   inkscape:pagecheckerboard="0"
   showgrid="false"
   fit-margin-top="0"
   fit-margin-left="0"
   fit-margin-right="0"
   fit-margin-bottom="0"
   inkscape:zoom="0.96625"
   inkscape:cx="-21.733506"
   inkscape:cy="261.31953"
   inkscape:window-width="1920"
   inkscape:window-height="991"
   inkscape:window-x="-9"
   inkscape:window-y="-9"
   inkscape:window-maximized="1"
   inkscape:current-layer="Layer_1" />
<polygon
   fill="#ffffff"
   points="1002.41,470.792 640.591,669.857 278.515,470.828 640.336,271.581 "
   id="polygon32"
   transform="translate(-223.16,-139.013)" />
<path
   fill="#db1e2c"
   d="M 208.005,216.818 C 93.59,279.732 0,331.27 0,331.38 c 0.035,0.146 415.357,228.613 416.157,228.904 0.363,0.146 416.521,-228.614 416.521,-228.939 0,-0.291 -415.433,-228.725 -416.122,-228.833 -0.324,-0.074 -94.17,51.355 -208.551,114.306 z m 390.281,15.229 c 99.516,54.736 180.965,99.623 180.965,99.732 0,0.182 -361.094,198.884 -361.819,199.065 -0.438,0.107 -361.967,-198.594 -362.076,-199.029 -0.072,-0.183 361.313,-199.21 361.821,-199.247 0.07,10e-4 81.559,44.778 181.109,99.479 z"
   id="path34" />
<path
   fill="#db1e2c"
   d="m 262.96,247.602 c -84.141,46.269 -153.052,84.249 -153.088,84.395 -0.072,0.219 79.67,44.307 99.696,55.138 l 1.927,1.018 34.201,-18.791 c 18.826,-10.322 34.273,-18.718 34.31,-18.646 0.036,0.036 0.618,2.545 1.272,5.562 5.161,23.588 16.937,42.232 36.491,57.862 5.706,4.543 14.502,10.432 20.316,13.63 l 4.217,2.325 -13.558,7.45 c -7.451,4.071 -13.448,7.523 -13.303,7.669 0.291,0.327 100.678,55.536 100.932,55.536 0.109,0 304.831,-167.479 306.648,-168.533 0.255,-0.146 -95.771,-53.247 -99.878,-55.247 -1.09,-0.508 -1.127,-0.508 -66.113,35.221 l -64.984,35.728 -1.019,3.998 c -3.38,13.229 -10.432,25.225 -20.753,35.255 -9.995,9.74 -21.081,15.992 -34.311,19.372 -6.942,1.781 -11.521,2.362 -19.082,2.362 -7.561,0 -12.141,-0.581 -19.081,-2.362 -13.23,-3.38 -24.315,-9.632 -34.312,-19.372 -12.176,-11.849 -19.264,-25.368 -22.425,-42.888 -0.945,-5.161 -0.945,-18.827 0,-23.988 3.198,-17.555 10.321,-31.147 22.606,-43.104 11.667,-11.305 26.097,-18.391 42.487,-20.898 5.379,-0.801 16.064,-0.801 21.444,0 11.267,1.707 22.534,5.996 31.584,12.029 8.832,5.889 17.446,14.757 22.861,23.517 l 1.525,2.472 h 7.561 7.523 v -31.947 -31.948 l 9.813,-5.379 c 5.415,-2.944 9.813,-5.452 9.813,-5.561 0,-0.291 -101.004,-55.791 -101.73,-55.936 -0.318,-0.042 -69.412,37.757 -153.59,84.061 z m 156.832,-19.045 c 20.137,1.854 40.599,8.978 56.444,19.663 1.781,1.199 3.271,2.108 3.308,2.035 0.072,-0.073 0.582,-1.489 1.163,-3.198 l 1.055,-3.09 4.834,-2.471 4.798,-2.472 v 24.023 23.988 h -2.146 -2.145 l -3.126,-4.106 c -5.562,-7.415 -13.92,-15.521 -20.789,-20.136 -3.126,-2.108 -8.323,-4.871 -13.229,-6.941 -13.156,-5.634 -26.424,-8.069 -38.526,-7.015 -18.281,1.599 -35.109,8.504 -48.23,19.809 -16.21,13.956 -26.678,33.328 -29.186,54.009 -0.944,7.778 -0.218,19.336 1.672,27.26 4.325,18.173 14.901,36.236 26.496,45.25 14.684,11.449 27.259,17.266 42.343,19.663 4.761,0.764 16.864,0.872 21.808,0.183 15.848,-2.146 31.148,-8.541 42.524,-17.736 4.725,-3.816 11.121,-10.831 16.719,-18.392 l 2.362,-3.162 h 3.198 3.162 v 12.902 12.938 l -3.308,3.271 c -11.158,10.978 -26.858,20.026 -44.851,25.878 -12.357,3.998 -22.39,5.67 -36.347,5.961 -35.363,0.801 -62.515,-8.067 -88.319,-28.786 -19.627,-15.736 -30.967,-35.764 -34.965,-61.604 -0.801,-5.234 -0.908,-20.535 -0.183,-25.806 3.344,-23.844 11.994,-42.089 26.605,-56.081 18.354,-17.591 37.907,-28.313 60.479,-33.147 14.07,-3.017 31.842,-4.071 46.38,-2.69 z"
   id="path36" />
<path
   fill="#db1e2c"
   d="m 410.525,272.863 c -14.248,1.271 -28.749,8.759 -38.418,19.845 -13.521,15.483 -18.209,37.146 -12.248,56.662 3.198,10.396 9.486,20.136 17.664,27.296 14.103,12.321 32.893,17.373 50.993,13.739 7.195,-1.454 15.047,-4.762 21.626,-9.123 4.834,-3.233 12.976,-11.304 15.991,-15.92 9.087,-13.811 12.141,-29.331 8.868,-45.322 -3.271,-16.211 -12.866,-29.877 -27.223,-38.816 -10.576,-6.617 -23.769,-9.56 -37.253,-8.361 z m 16.573,4.507 c 4.217,0.764 9.269,2.436 13.229,4.396 2.727,1.382 3.671,2.072 5.742,4.397 l 2.472,2.728 -4.688,4.979 c -6.869,7.27 -5.961,6.65 -8.979,6.033 -3.053,-0.618 -15.374,-1.199 -20.172,-0.945 l -3.488,0.146 -7.159,-6.435 c -3.927,-3.524 -7.16,-6.542 -7.16,-6.688 0,-0.146 1.854,-2.071 4.105,-4.288 4.361,-4.325 4.106,-4.18 8.979,-4.87 3.017,-0.436 13.593,-0.07 17.119,0.547 z M 403,293.107 c 3.927,3.524 7.196,6.506 7.271,6.65 0.036,0.109 -1.781,5.38 -4.035,11.668 l -4.143,11.411 -11.522,5.38 -11.558,5.344 -4.253,-3.962 c -2.325,-2.182 -5.271,-5.053 -6.542,-6.36 l -2.326,-2.363 0.437,-2.106 c 1.417,-6.324 6.36,-18.937 8.795,-22.354 0.618,-0.836 2.146,-1.78 5.707,-3.489 4.652,-2.217 14.104,-6.215 14.721,-6.251 0.18,0 3.523,2.871 7.448,6.432 z m 50.739,-1.345 c 4.544,2.508 8.905,7.851 12.866,15.847 3.308,6.579 5.524,14.901 5.524,20.535 v 1.963 l -3.234,3.234 c -1.78,1.78 -3.38,3.161 -3.525,3.09 -0.182,-0.072 -2.217,-1.382 -4.507,-2.907 -2.29,-1.527 -6.36,-4.035 -9.014,-5.634 l -4.798,-2.872 -1.31,-4.181 c -1.635,-5.232 -5.813,-16.863 -6.688,-18.535 l -0.654,-1.271 5.452,-5.707 c 6.181,-6.469 5.2,-6.142 9.888,-3.562 z m -82.467,9.886 c -1.745,3.671 -4.398,11.194 -5.67,15.992 -0.8,3.09 -3.672,8.832 -3.891,7.777 -0.218,-1.018 1.055,-6.905 2.29,-10.612 1.454,-4.361 4.289,-10.178 6.798,-13.849 0.98,-1.454 1.816,-2.652 1.926,-2.652 0.072,0 -0.581,1.528 -1.453,3.344 z m 41.65,30.458 c 5.672,4.253 10.433,7.851 10.577,7.96 0.291,0.254 -0.944,26.132 -1.235,26.423 -0.108,0.073 -5.197,2.181 -11.339,4.652 l -11.195,4.507 -1.854,-0.618 c -6.506,-2.253 -14.757,-8.323 -18.973,-13.993 l -1.054,-1.417 v -7.669 c 0.036,-6.833 0.727,-15.191 1.417,-17.01 0.255,-0.654 21.953,-10.867 22.753,-10.687 0.328,0.074 5.233,3.599 10.903,7.852 z m 39.836,-2.508 c 3.381,2.034 7.523,4.651 9.269,5.852 l 3.126,2.146 0.254,2.979 c 0.255,3.126 -0.327,14.938 -0.872,18.5 -0.581,3.344 -1.854,4.906 -7.851,9.231 -4.216,3.089 -13.594,8.505 -14.685,8.505 -0.362,0 -17.772,-9.668 -18.317,-10.142 -0.327,-0.326 0.98,-25.731 1.345,-26.132 0.254,-0.255 21.407,-14.575 21.553,-14.61 0.073,0 2.833,1.672 6.178,3.671 z M 379.231,363 c 3.815,4.652 9.195,8.796 14.685,11.305 1.744,0.8 3.563,1.672 3.998,1.89 0.689,0.327 1.162,1.381 2.289,4.798 0.765,2.362 1.345,4.397 1.271,4.436 -0.254,0.254 -6.25,-2.146 -9.449,-3.744 -6.542,-3.309 -12.03,-7.523 -16.719,-12.757 -2.509,-2.871 -5.308,-6.688 -5.308,-7.307 0,-0.182 1.199,-0.509 2.653,-0.689 4.581,-0.622 4.253,-0.731 6.58,2.068 z m 76.107,8.905 c -1.963,1.89 -4.726,4.252 -6.179,5.271 -3.09,2.181 -8.614,5.271 -8.905,4.979 -0.107,-0.108 0.291,-1.09 0.873,-2.145 0.944,-1.78 1.309,-2.071 4.651,-3.854 4.146,-2.217 10.032,-5.815 11.631,-7.124 0.618,-0.473 1.163,-0.799 1.272,-0.69 0.109,0.11 -1.416,1.709 -3.343,3.563 z"
   id="path38" />
<g
   id="g48"
   transform="translate(-223.16,-139.013)">
	<path
   fill="#fdcb08"
   d="m 528.947,147.995 c -2.52,4.953 -4.652,9.089 -4.738,9.175 -0.15,0.172 -19.082,3.145 -20.03,3.166 -0.171,0 2.972,3.295 7,7.322 l 7.301,7.301 -1.615,10.08 c -0.904,5.535 -1.615,10.123 -1.572,10.145 0.021,0.042 4.113,-2.004 9.067,-4.567 4.976,-2.562 9.11,-4.652 9.218,-4.652 0.108,0 4.243,2.089 9.218,4.652 4.954,2.563 9.046,4.609 9.067,4.567 0.043,-0.022 -0.668,-4.609 -1.571,-10.145 l -1.616,-10.08 7.301,-7.301 c 4.027,-4.027 7.215,-7.322 7.085,-7.322 -0.388,0 -20.16,-3.21 -20.223,-3.273 -0.021,-0.043 -2.112,-4.114 -4.631,-9.067 -2.498,-4.932 -4.588,-8.981 -4.63,-8.981 -0.044,-10e-4 -2.133,4.048 -4.631,8.98 z"
   id="path40" />
	<path
   fill="#fdcb08"
   d="m 599.805,148.167 c -4.373,8.658 -4.674,9.153 -5.276,9.261 -1.443,0.259 -19.254,2.907 -19.535,2.907 -0.151,0 3.037,3.317 7.085,7.366 l 7.366,7.387 -1.615,9.994 c -0.883,5.492 -1.573,10.015 -1.53,10.058 0.043,0.043 4.114,-2.003 9.046,-4.544 4.954,-2.541 9.067,-4.63 9.197,-4.63 0.129,0 4.243,2.089 9.197,4.63 4.932,2.542 9.002,4.588 9.046,4.544 0.042,-0.043 -0.646,-4.566 -1.53,-10.058 l -1.615,-9.994 7.366,-7.387 c 4.049,-4.049 7.215,-7.366 7.043,-7.366 -0.582,0 -19.988,-3.166 -20.16,-3.295 -0.107,-0.064 -2.218,-4.157 -4.717,-9.067 -2.477,-4.932 -4.565,-8.96 -4.63,-8.96 -0.063,0 -2.196,4.136 -4.738,9.154 z"
   id="path42" />
	<path
   fill="#fdcb08"
   d="m 670.662,147.995 c -2.519,4.953 -4.651,9.089 -4.737,9.175 -0.149,0.172 -19.082,3.145 -20.029,3.166 -0.173,0 2.972,3.295 6.998,7.322 l 7.303,7.301 -1.615,10.08 c -0.905,5.535 -1.616,10.123 -1.572,10.145 0.021,0.042 4.113,-2.004 9.067,-4.567 4.975,-2.562 9.11,-4.652 9.219,-4.652 0.106,0 4.242,2.089 9.217,4.652 4.954,2.563 9.047,4.609 9.067,4.567 0.044,-0.022 -0.667,-4.609 -1.572,-10.145 l -1.615,-10.08 7.303,-7.301 c 4.026,-4.027 7.214,-7.322 7.085,-7.322 -0.388,0 -20.16,-3.21 -20.224,-3.273 -0.021,-0.043 -2.112,-4.114 -4.631,-9.067 -2.498,-4.932 -4.587,-8.981 -4.63,-8.981 -0.045,-10e-4 -2.136,4.048 -4.634,8.98 z"
   id="path44" />
	<path
   fill="#fdcb08"
   d="m 741.522,148.167 c -4.373,8.658 -4.674,9.153 -5.277,9.261 -1.442,0.259 -19.254,2.907 -19.534,2.907 -0.15,0 3.037,3.317 7.087,7.366 l 7.364,7.387 -1.615,9.994 c -0.883,5.492 -1.571,10.015 -1.528,10.058 0.043,0.043 4.114,-2.003 9.045,-4.544 4.954,-2.541 9.067,-4.63 9.197,-4.63 0.13,0 4.242,2.089 9.196,4.63 4.933,2.542 9.004,4.588 9.047,4.544 0.043,-0.043 -0.647,-4.566 -1.529,-10.058 l -1.616,-9.994 7.366,-7.387 c 4.049,-4.049 7.216,-7.366 7.043,-7.366 -0.58,0 -19.986,-3.166 -20.16,-3.295 -0.106,-0.064 -2.218,-4.157 -4.716,-9.067 -2.477,-4.932 -4.566,-8.96 -4.63,-8.96 -0.067,0.001 -2.198,4.136 -4.74,9.154 z"
   id="path46" />
</g>
</svg>
